<?xml version="1.0" encoding="UTF-8"?><svg id="Layer_2" xmlns="http://www.w3.org/2000/svg" viewBox="0 0 249.7 77.36"><defs><style>.cls-1{fill:#21409a;stroke-width:0px;}</style></defs><g id="Layer_1-2"><path class="cls-1" d="m78.64,32.82c-2.61,0-4.33,1.83-5.16,3.96h7.93s.1-.73.1-1.04c0-1.67-1.04-2.92-2.87-2.92Z"/><path class="cls-1" d="m170.28,33.55c-3.55,0-7.62,3.23-7.62,8.14,0,3.13,2.09,4.95,5.06,4.95,3.6,0,7.56-3.08,7.56-7.98,0-3.18-2.09-5.11-5.01-5.11Z"/><path class="cls-1" d="m109.67,33.66c-2.76,0-6.73,3.03-6.73,8.34,0,2.56,1.3,4.69,4.22,4.69,3.08,0,6.73-3.03,6.73-8.29,0-2.92-1.62-4.75-4.22-4.75Z"/><path class="cls-1" d="m210.75,45.6c0,1.25.78,2.09,1.98,2.09,2.4,0,5.32-2.87,5.79-5.06l.16-.73h-.83c-4.43,0-7.09,1.41-7.09,3.7Z"/><path class="cls-1" d="m124.85,0C55.9,0,0,17.32,0,38.68s55.9,38.68,124.85,38.68,124.85-17.32,124.85-38.68S193.8,0,124.85,0Zm-63.58,34.23c-.63,0-.89.16-1.3.83l-9.02,18.46h-10.27l-.63-12.41c-.05-1.46-.05-2.87-.05-2.87h-.1s-.37,1.41-.99,2.87l-5.42,12.41h-10.27l-1.83-18.46c-.05-.68-.37-.83-.99-.83h-.78l1.51-7.56h6c2.14,0,3.23.99,3.23,2.76l.21,13.09c.05,1.46-.21,2.82-.21,2.82h.1s.37-1.36.99-2.82l6.78-15.75h7.72l.63,15.75c.05,1.46-.1,2.82-.1,2.82h.1s.26-1.36.83-2.82l5.32-13.3c.73-1.77,1.72-2.56,3.7-2.56h7.15l-1.51,7.56h-.78Zm28.01,7.51h-16.9s-.05.26-.05.52c0,2.71,2.09,4.43,5.27,4.43,3.91,0,7.98-2.71,7.98-2.71l2.29,6.68s-4.75,3.49-10.85,3.49c-9.18,0-13.72-5.42-13.72-11.73,0-9.34,6.62-16.38,15.49-16.38,7.61,0,11.47,4.33,11.47,10.54,0,2.45-.99,5.16-.99,5.16Zm19.04,12.41c-2.82,0-5.89-.94-7.51-3.55h-.1s-.05.68-.21,1.51l-.26,1.41h-8.4l5.37-27.75c.05-.31.16-.83.16-1.1,0-.57-.31-.89-.94-.89h-1.98l1.46-7.56h8.08c2.35,0,3.44.83,3.44,2.76,0,.42-.1.99-.21,1.56l-1.15,5.79c-.26,1.36-.57,2.4-.57,2.4h.1c1.77-1.72,4.54-2.71,7.04-2.71,6.52,0,10.38,4.59,10.38,11.68,0,9.75-7.35,16.43-14.71,16.43Zm41.78-4.17c-.47,2.45-1.72,3.55-4.22,3.55h-17c-2.61,0-3.65-1.04-3.65-2.82,0-.57.1-1.2.26-2.03l4.43-22.69c.1-.52.16-.73.16-1.1,0-.68-.63-.83-1.15-.83h-2.03l1.51-7.82h8.19c2.71,0,3.86.99,3.86,2.97,0,.42-.05.89-.16,1.41l-4.54,23.16c-.1.47-.16.83-.16,1.1,0,.52.26.83.99.83h4.85c.73,0,1.2-.42,1.36-1.15l.42-2.03h8.34l-1.46,7.46Zm3.44-7.88c0-9.44,8.34-16.06,17.37-16.06,7.82,0,13.51,4.75,13.51,12.05,0,9.49-8.4,16.06-17.37,16.06-7.77,0-13.51-4.69-13.51-12.05Zm46.89-11.11l-4.49,23.21c-1.77,9.28-10.38,10.17-14.03,10.17-1.51,0-2.92-.16-2.92-.16l1.46-7.51s.47.05,1.09.05c2.71,0,5.01-.73,5.63-4.07l3.23-16.48c.1-.52.16-.83.16-1.1,0-.57-.31-.89-.94-.89h-1.98l1.46-7.56h8.08c2.29,0,3.44.83,3.44,2.66,0,.37-.05.89-.21,1.67Zm-6.99-7.46l1.41-7.3h7.56l-1.41,7.3h-7.56Zm35,29.99h-7.41c-2.19,0-2.97-1.15-2.97-2.24,0-.47.16-1.3.31-1.93h-.1s-2.82,4.8-8.66,4.8c-4.54,0-7.82-2.71-7.82-7.2,0-6.78,7.61-10.12,17.42-10.12h.36l.1-.52c.05-.31.16-.83.16-1.25,0-1.25-.99-2.24-3.08-2.24-1.46,0-2.29.47-2.45,1.3l-.26,1.2h-8.34l.57-2.97c.94-4.8,6.15-6.31,11.68-6.31,7.51,0,10.9,2.76,10.9,8.03,0,.94-.1,1.83-.31,2.82l-1.41,7.25c-.1.47-.16.83-.16,1.04,0,.52.42.78.99.78h1.98l-1.51,7.56Z"/></g></svg>